<?xml version="1.0" standalone="no"?>
<svg xmlns="http://www.w3.org/2000/svg" xmlns:xlink="http://www.w3.org/1999/xlink" width="104pt" height="204pt" viewBox="0.00 0.00 103.69 204.16">
<g id="graph0" class="graph" transform="translate(4,200.16000366210938) scale(1)" data-name="">
<polygon fill="white" stroke="none" points="-4,4 -4,-200.16 99.69,-200.16 99.69,4 -4,4"/>
<!-- 1 -->
<g id="node1" class="node" pointer-events="visible" data-name="10" data-comment="1">

<ellipse fill="white" stroke="black" cx="46" cy="-175.47" rx="20.89" ry="20.89"/>
<text text-anchor="middle" x="46" y="-171.27" font-family="Times,serif" font-size="14.00">10</text>
</g>
<!-- 5 -->
<g id="node2" class="node" pointer-events="visible" data-name="5">

<ellipse fill="white" stroke="black" cx="18" cy="-98.08" rx="18" ry="18"/>
<text text-anchor="middle" x="18" y="-93.88" font-family="Times,serif" font-size="14.00">5</text>
</g>
<!-- 10&#45;&gt;5 -->
<g id="edge1" class="edge" data-name="10-&gt;5">

<path fill="none" stroke="black" d="M38.93,-155.44C35.65,-146.6 31.69,-135.93 28.09,-126.26"/>
<polygon fill="black" stroke="black" points="31.4,-125.11 24.64,-116.96 24.84,-127.55 31.4,-125.11"/>
</g>
<!-- 1 -->
<g id="node3" class="node" pointer-events="visible" data-name="15" data-comment="1">

<ellipse fill="white" stroke="black" cx="75" cy="-98.08" rx="20.89" ry="20.89"/>
<text text-anchor="middle" x="75" y="-93.88" font-family="Times,serif" font-size="14.00">15</text>
</g>
<!-- 10&#45;&gt;1 -->
<g id="edge2" class="edge" data-name="10-&gt;15" data-comment="10-&gt;1">

<path fill="none" stroke="black" d="M53.32,-155.44C56.44,-147.32 60.16,-137.65 63.63,-128.63"/>
<polygon fill="black" stroke="black" points="66.82,-130.1 67.14,-119.51 60.28,-127.59 66.82,-130.1"/>
</g>
<!-- 2 -->
<g id="node4" class="node" pointer-events="visible" data-name="2">

<ellipse fill="white" stroke="black" cx="18" cy="-20.69" rx="18" ry="18"/>
<text text-anchor="middle" x="18" y="-16.49" font-family="Times,serif" font-size="14.00">2</text>
</g>
<!-- 5&#45;&gt;2 -->
<g id="edge3" class="edge" data-name="5-&gt;2">

<path fill="none" stroke="black" d="M18,-79.6C18,-70.94 18,-60.26 18,-50.44"/>
<polygon fill="black" stroke="black" points="21.5,-50.6 18,-40.6 14.5,-50.6 21.5,-50.6"/>
</g>
<!-- 1 -->
<g id="node5" class="node" pointer-events="visible" data-name="12" data-comment="1">

<ellipse fill="white" stroke="black" cx="75" cy="-20.69" rx="20.89" ry="20.89" style=""/>
<text text-anchor="middle" x="75" y="-16.49" font-family="Times,serif" font-size="14.00" style="">12</text>
</g>
<!-- 15&#45;&gt;1 -->
<g id="edge4" class="edge" data-name="15-&gt;12" data-comment="15-&gt;1">

<path fill="none" stroke="black" d="M75,-76.88C75,-69.61 75,-61.23 75,-53.23"/>
<polygon fill="black" stroke="black" points="78.5,-53.47 75,-43.47 71.5,-53.47 78.5,-53.47"/>
</g>
</g>
</svg>