<?xml version="1.0" standalone="no"?>
<svg xmlns="http://www.w3.org/2000/svg" xmlns:xlink="http://www.w3.org/1999/xlink" width="62pt" height="578pt" viewBox="0.00 0.00 62 578.2">
<g id="graph0" class="graph" transform="translate(16.533403395505037,411.62029009196783) scale(0.6896511938074722)" data-name="">
<polygon fill="white" stroke="none" points="-4,4 -4,-574.2 58,-574.2 58,4 -4,4"/>
<!-- node1 -->
<g id="node1" class="node" pointer-events="visible" data-name="node1">

<polygon fill="white" stroke="black" points="0,-520.1 0,-569.7 54,-569.7 54,-520.1 0,-520.1"/>
<text text-anchor="middle" x="27" y="-553.1" font-family="Times,serif" font-size="14.00">10</text>
<polyline fill="none" stroke="black" points="0,-544.9 54,-544.9"/>
<text text-anchor="middle" x="27" y="-528.3" font-family="Times,serif" font-size="14.00"> </text>
</g>
<!-- node2 -->
<g id="node2" class="node" pointer-events="visible" data-name="node2">

<polygon fill="white" stroke="black" points="0,-433.5 0,-483.1 54,-483.1 54,-433.5 0,-433.5"/>
<text text-anchor="middle" x="27" y="-466.5" font-family="Times,serif" font-size="14.00">5</text>
<polyline fill="none" stroke="black" points="0,-458.3 54,-458.3"/>
<text text-anchor="middle" x="27" y="-441.7" font-family="Times,serif" font-size="14.00"> </text>
</g>
<!-- node1&#45;&gt;node2 -->
<g id="edge1" class="edge" data-name="node1xt-&gt;node2:data" data-comment="node1-&gt;node2">

<path fill="none" stroke="black" d="M27,-519.6C27,-511.43 27,-502.64 27,-494.34"/>
<polygon fill="black" stroke="black" points="30.5,-494.57 27,-484.57 23.5,-494.57 30.5,-494.57"/>
</g>
<!-- node3 -->
<g id="node3" class="node" pointer-events="visible" data-name="node3">

<polygon fill="white" stroke="black" points="0,-260.3 0,-309.9 54,-309.9 54,-260.3 0,-260.3"/>
<text text-anchor="middle" x="27" y="-293.3" font-family="Times,serif" font-size="14.00">2</text>
<polyline fill="none" stroke="black" points="0,-285.1 54,-285.1"/>
<text text-anchor="middle" x="27" y="-268.5" font-family="Times,serif" font-size="14.00"> </text>
</g>
<!-- node4 -->
<g id="node4" class="node" pointer-events="visible" data-name="node4">

<polygon fill="white" stroke="black" points="0,-346.9 0,-396.5 54,-396.5 54,-346.9 0,-346.9"/>
<text text-anchor="middle" x="27" y="-379.9" font-family="Times,serif" font-size="14.00">15</text>
<polyline fill="none" stroke="black" points="0,-371.7 54,-371.7"/>
<text text-anchor="middle" x="27" y="-355.1" font-family="Times,serif" font-size="14.00"> </text>
</g><g id="edge2" class="edge" data-name="node2xt-&gt;node4:data" data-comment="node4">

<path fill="none" stroke="black" d="M27,-433C27,-424.83 27,-416.04 27,-407.74"/>
<polygon fill="black" stroke="black" points="30.5,-407.97 27,-397.97 23.5,-407.97 30.5,-407.97"/>
</g>
<!-- node5 -->
<g id="node5" class="node" pointer-events="visible" data-name="node5">

<polygon fill="white" stroke="black" points="0,-87.1 0,-136.7 54,-136.7 54,-87.1 0,-87.1"/>
<text text-anchor="middle" x="27" y="-120.1" font-family="Times,serif" font-size="14.00">12</text>
<polyline fill="none" stroke="black" points="0,-111.9 54,-111.9"/>
<text text-anchor="middle" x="27" y="-95.3" font-family="Times,serif" font-size="14.00"> </text>
</g>
<!-- node6 -->
<g id="node6" class="node" pointer-events="visible" data-name="node6">

<polygon fill="white" stroke="black" points="0,-173.7 0,-223.3 54,-223.3 54,-173.7 0,-173.7"/>
<text text-anchor="middle" x="26.89" y="-206.7" font-family="Times,serif" font-size="14.00">null</text>
<polyline fill="none" stroke="black" points="0,-198.5 53.78,-198.5"/>
<text text-anchor="middle" x="26.89" y="-181.9" font-family="Times,serif" font-size="14.00"> </text>
</g><g id="edge3" class="edge" data-name="node4xt-&gt;node3:data" data-comment="node6">

<path fill="none" stroke="black" d="M27,-346.4C27,-338.23 27,-329.44 27,-321.14"/>
<polygon fill="black" stroke="black" points="30.5,-321.37 27,-311.37 23.5,-321.37 30.5,-321.37"/>
</g>
<!-- node7 -->
<g id="node7" class="node" pointer-events="visible" data-name="node7">

<polygon fill="white" stroke="black" points="0,-0.5 0,-50.1 54,-50.1 54,-0.5 0,-0.5"/>
<text text-anchor="middle" x="26.89" y="-33.5" font-family="Times,serif" font-size="14.00">null</text>
<polyline fill="none" stroke="black" points="0,-25.3 53.78,-25.3"/>
<text text-anchor="middle" x="26.89" y="-8.7" font-family="Times,serif" font-size="14.00"> </text>
</g><g id="edge4" class="edge" data-name="node3xt-&gt;node6:data" data-comment="node7">

<path fill="none" stroke="black" d="M27,-259.8C27,-251.63 27,-242.84 27,-234.54"/>
<polygon fill="black" stroke="black" points="30.5,-234.77 27,-224.77 23.5,-234.77 30.5,-234.77"/>
</g>
<!-- node8 -->

<!-- node9 -->
<!-- node9 -->
<!-- node9 -->
<!-- node9 -->

<g id="edge5" class="edge" data-name="node6xt-&gt;node5:data" data-comment="node9">

<path fill="none" stroke="black" d="M27,-173.2C27,-165.03 27,-156.24 27,-147.94"/>
<polygon fill="black" stroke="black" points="30.5,-148.17 27,-138.17 23.5,-148.17 30.5,-148.17"/>
</g>
<g id="edge6" class="edge" data-name="node5xt-&gt;node7:data" data-comment="node9">

<path fill="none" stroke="black" d="M27,-86.6C27,-78.43 27,-69.64 27,-61.34"/>
<polygon fill="black" stroke="black" points="30.5,-61.57 27,-51.57 23.5,-61.57 30.5,-61.57"/>
</g>

</g>
</svg>