<?xml version="1.0" standalone="no"?>
<svg xmlns="http://www.w3.org/2000/svg" xmlns:xlink="http://www.w3.org/1999/xlink" width="104pt" height="127pt" viewBox="0.00 0.00 103.69 126.77">
<g id="graph0" class="graph" transform="translate(16.533403395505037,100.29104093775373) scale(0.6896511938074722)" data-name="">
<polygon fill="white" stroke="none" points="-4,4 -4,-122.77 99.69,-122.77 99.69,4 -4,4"/>
<!-- node1 -->
<g id="node1" class="node" pointer-events="visible" data-name="10" data-comment="node1">

<ellipse fill="white" stroke="black" cx="46" cy="-98.08" rx="20.89" ry="20.89"/>
<text text-anchor="middle" x="46" y="-93.88" font-family="Times,serif" font-size="14.00">10</text>
</g>
<!-- 1 -->
<g id="node2" class="node" pointer-events="visible" data-name="5" data-comment="1">

<ellipse fill="white" stroke="black" cx="18" cy="-20.69" rx="18" ry="18"/>
<text text-anchor="middle" x="18" y="-16.49" font-family="Times,serif" font-size="14.00">5</text>
</g>
<!-- 10&#45;&gt;5 -->
<g id="edge1" class="edge" data-name="10-&gt;5">

<path fill="none" stroke="black" d="M38.93,-78.06C35.65,-69.22 31.69,-58.54 28.09,-48.87"/>
<polygon fill="black" stroke="black" points="31.4,-47.72 24.64,-39.57 24.84,-50.16 31.4,-47.72"/>
</g>
<!-- 1 -->
<g id="node3" class="node" pointer-events="visible" data-name="15" data-comment="1">

<ellipse fill="white" stroke="black" cx="75" cy="-20.69" rx="20.89" ry="20.89" style=""/>
<text text-anchor="middle" x="75" y="-16.49" font-family="Times,serif" font-size="14.00" style="">15</text>
</g>
<!-- 10&#45;&gt;1 -->
<g id="edge2" class="edge" data-name="10-&gt;15" data-comment="10-&gt;1">

<path fill="none" stroke="black" d="M53.32,-78.06C56.44,-69.93 60.16,-60.26 63.63,-51.24"/>
<polygon fill="black" stroke="black" points="66.82,-52.71 67.14,-42.12 60.28,-50.2 66.82,-52.71"/>
</g>
</g>
</svg>