<?xml version="1.0" standalone="no"?>
<svg xmlns="http://www.w3.org/2000/svg" xmlns:xlink="http://www.w3.org/1999/xlink" width="104pt" height="199pt" viewBox="0.00 0.00 103.69 198.77">
<g id="graph0" class="graph" transform="translate(16.533403395505037,149.94593215351279) scale(0.6896511938074722)" data-name="">
<polygon fill="white" stroke="none" points="-4,4 -4,-194.77 99.69,-194.77 99.69,4 -4,4"/>
<!-- node1 -->
<g id="node1" class="node" pointer-events="visible" data-name="10" data-comment="node1">

<ellipse fill="white" stroke="black" cx="46" cy="-170.08" rx="20.89" ry="20.89"/>
<text text-anchor="middle" x="46" y="-165.88" font-family="Times,serif" font-size="14.00">10</text>
</g>
<!-- 1 -->
<g id="node2" class="node" pointer-events="visible" data-name="5" data-comment="1">

<ellipse fill="white" stroke="black" cx="18" cy="-92.69" rx="18" ry="18"/>
<text text-anchor="middle" x="18" y="-88.49" font-family="Times,serif" font-size="14.00">5</text>
</g>
<!-- 10&#45;&gt;5 -->
<g id="edge1" class="edge" data-name="10-&gt;5">

<path fill="none" stroke="black" d="M38.93,-150.06C35.65,-141.22 31.69,-130.54 28.09,-120.87"/>
<polygon fill="black" stroke="black" points="31.4,-119.72 24.64,-111.57 24.84,-122.16 31.4,-119.72"/>
</g>
<!-- 1 -->
<g id="node3" class="node" pointer-events="visible" data-name="15" data-comment="1">

<ellipse fill="white" stroke="black" cx="75" cy="-92.69" rx="20.89" ry="20.89"/>
<text text-anchor="middle" x="75" y="-88.49" font-family="Times,serif" font-size="14.00">15</text>
</g>
<!-- 10&#45;&gt;1 -->
<g id="edge2" class="edge" data-name="10-&gt;15" data-comment="10-&gt;1">

<path fill="none" stroke="black" d="M53.32,-150.06C56.44,-141.93 60.16,-132.26 63.63,-123.24"/>
<polygon fill="black" stroke="black" points="66.82,-124.71 67.14,-114.12 60.28,-122.2 66.82,-124.71"/>
</g>
<!-- 2 -->
<g id="node4" class="node" pointer-events="visible" data-name="2">

<ellipse fill="white" stroke="black" cx="18" cy="-18" rx="18" ry="18" style=""/>
<text text-anchor="middle" x="18" y="-13.8" font-family="Times,serif" font-size="14.00" style="">2</text>
</g>
<!-- 5&#45;&gt;2 -->
<g id="edge3" class="edge" data-name="5-&gt;2">

<path fill="none" stroke="black" d="M18,-74.47C18,-66.47 18,-56.74 18,-47.68"/>
<polygon fill="black" stroke="black" points="21.5,-47.87 18,-37.87 14.5,-47.87 21.5,-47.87"/>
</g>
</g>
</svg>